<?xml version="1.0" encoding="UTF-8"?>
<svg id="Layer_1" data-name="Layer 1" xmlns="http://www.w3.org/2000/svg" xmlns:xlink="http://www.w3.org/1999/xlink" viewBox="0 0 841.89 595.28">
  <defs>
    <style>
      .cls-1 {
        fill: none;
      }

      .cls-2 {
        clip-path: url(#clippath);
      }

      .cls-3 {
        fill: #fff;
      }
    </style>
    <clipPath id="clippath">
      <rect class="cls-1" width="841.89" height="595.28"/>
    </clipPath>
  </defs>
  <g class="cls-2">
    <path class="cls-3" d="M232.47,297.64c0-46.83-38.1-84.93-84.93-84.93-12.08,0-23.68,2.49-34.56,7.36v14.01c.76-.41,1.52-.81,2.29-1.2,10.07-5.03,20.93-7.58,32.27-7.58,39.89,0,72.34,32.45,72.34,72.34s-32.45,72.34-72.34,72.34c-12.51,0-24.29-3.19-34.56-8.81v14.02c10.57,4.73,22.26,7.38,34.56,7.38,46.83,0,84.93-38.1,84.93-84.93"/>
    <path class="cls-3" d="M207.29,297.64c0-32.95-26.8-59.75-59.75-59.75-9.37,0-18.34,2.1-26.64,6.25-2.79,1.4-5.43,3-7.92,4.76v16.62c3.8-4.07,8.35-7.52,13.54-10.12,6.54-3.27,13.62-4.93,21.02-4.93,26,0,47.16,21.15,47.16,47.16s-21.15,47.16-47.16,47.16c-13.64,0-25.94-5.83-34.56-15.12v16.66c9.77,6.95,21.69,11.06,34.56,11.06,32.95,0,59.75-26.8,59.75-59.75"/>
    <path class="cls-3" d="M147.54,187.52c-11.91,0-23.49,1.86-34.56,5.53v13.4c11-4.19,22.58-6.33,34.56-6.33,53.78,0,97.53,43.75,97.53,97.52s-43.75,97.53-97.53,97.53c-12.17,0-23.81-2.26-34.56-6.35v13.35c10.88,3.61,22.49,5.59,34.56,5.59,60.72,0,110.12-49.4,110.12-110.12s-49.4-110.12-110.12-110.12"/>
    <rect class="cls-3" x="37.42" y="193.02" width="12.59" height="266.94"/>
    <rect class="cls-3" x="87.79" y="193.02" width="12.59" height="266.94"/>
    <rect class="cls-3" x="62.6" y="193.02" width="12.59" height="266.94"/>
    <path class="cls-3" d="M704.91,297.64c0,46.83-38.1,84.93-84.93,84.93-12.08,0-23.68-2.49-34.56-7.36v-14.01c.76,.41,1.52,.81,2.29,1.2,10.07,5.03,20.93,7.58,32.27,7.58,39.89,0,72.34-32.45,72.34-72.34s-32.45-72.34-72.34-72.34c-12.51,0-24.29,3.19-34.56,8.81v-14.02c10.57-4.73,22.26-7.38,34.56-7.38,46.83,0,84.93,38.1,84.93,84.93"/>
    <path class="cls-3" d="M679.73,297.64c0,32.95-26.8,59.75-59.75,59.75-9.37,0-18.34-2.1-26.64-6.25-2.79-1.4-5.43-3-7.92-4.76v-16.62c3.8,4.07,8.35,7.52,13.54,10.12,6.54,3.27,13.62,4.93,21.02,4.93,26,0,47.16-21.15,47.16-47.16s-21.16-47.16-47.16-47.16c-13.64,0-25.95,5.83-34.56,15.12v-16.66c9.77-6.95,21.69-11.06,34.56-11.06,32.95,0,59.75,26.8,59.75,59.75"/>
    <path class="cls-3" d="M619.98,407.76c-11.91,0-23.49-1.86-34.56-5.53v-13.4c11,4.19,22.58,6.33,34.56,6.33,53.78,0,97.53-43.75,97.53-97.53s-43.75-97.53-97.53-97.53c-12.17,0-23.81,2.26-34.56,6.35v-13.35c10.88-3.61,22.49-5.59,34.56-5.59,60.72,0,110.12,49.4,110.12,110.12s-49.4,110.12-110.12,110.12"/>
    <rect class="cls-3" x="509.86" y="135.31" width="12.59" height="266.94"/>
    <rect class="cls-3" x="560.23" y="135.31" width="12.59" height="266.94"/>
    <rect class="cls-3" x="535.04" y="135.31" width="12.59" height="266.94"/>
    <rect class="cls-3" x="746.34" y="135.31" width="12.59" height="266.94"/>
    <rect class="cls-3" x="796.71" y="135.31" width="12.59" height="266.94"/>
    <rect class="cls-3" x="771.52" y="135.31" width="12.59" height="266.94"/>
    <path class="cls-3" d="M383.51,237.89c-9.37,0-18.34,2.1-26.64,6.25-20.42,10.2-33.1,30.7-33.1,53.5,0,32.95,26.8,59.75,59.75,59.75s59.75-26.8,59.75-59.75-26.8-59.75-59.75-59.75m0,106.91c-26,0-47.16-21.15-47.16-47.16,0-18,10.02-34.18,26.14-42.23,6.55-3.27,13.62-4.92,21.02-4.92,26,0,47.16,21.15,47.16,47.16s-21.15,47.16-47.16,47.16"/>
    <path class="cls-3" d="M383.51,187.52c-17.26,0-33.79,3.89-49.15,11.56-37.61,18.78-60.97,56.54-60.97,98.56,0,60.72,49.4,110.12,110.12,110.12s110.12-49.4,110.12-110.12-49.4-110.12-110.12-110.12m0,207.65c-53.78,0-97.53-43.75-97.53-97.53,0-37.21,20.69-70.66,54-87.29,13.6-6.79,28.24-10.23,43.52-10.23,53.78,0,97.53,43.75,97.53,97.53s-43.75,97.53-97.53,97.53"/>
    <path class="cls-3" d="M383.51,382.57c-46.83,0-84.93-38.1-84.93-84.93,0-32.41,18.02-61.54,47.04-76.03,11.83-5.91,24.58-8.9,37.9-8.9,46.83,0,84.93,38.1,84.93,84.93s-38.1,84.93-84.93,84.93m0-157.28c-11.34,0-22.2,2.55-32.27,7.58-24.72,12.34-40.07,37.16-40.07,64.76,0,39.89,32.45,72.34,72.34,72.34s72.34-32.45,72.34-72.34-32.45-72.34-72.34-72.34"/>
  </g>
</svg>